<?xml version="1.0" standalone="no"?>
<!DOCTYPE svg PUBLIC "-//W3C//DTD SVG 20010904//EN"
 "http://www.w3.org/TR/2001/REC-SVG-20010904/DTD/svg10.dtd">
<svg version="1.0" xmlns="http://www.w3.org/2000/svg"
 width="519.000000pt" height="618.000000pt" viewBox="0 0 519.000000 618.000000"
 preserveAspectRatio="xMidYMid meet">
<metadata>
Created by potrace 1.16, written by Peter Selinger 2001-2019
</metadata>
<g transform="translate(0.000000,618.000000) scale(0.100000,-0.100000)"
fill="#000000" stroke="none">
<path d="M2887 5866 c6 -50 -18 -139 -46 -176 -19 -24 -21 -24 -37 -8 -16 16
-19 14 -55 -25 -37 -42 -37 -42 -42 -17 -34 162 -57 219 -71 168 -11 -44 -111
-98 -276 -150 -36 -11 -81 -28 -100 -39 -43 -23 -222 -91 -227 -86 -2 2 6 16
18 30 17 23 18 27 4 27 -20 0 -102 -45 -134 -73 -36 -34 -105 -127 -134 -182
-31 -60 -53 -133 -62 -211 -9 -67 -20 -94 -40 -94 -17 0 -24 22 -33 102 l-8
63 -19 -35 c-27 -51 -36 -143 -19 -199 24 -81 20 -97 -45 -161 -67 -66 -86
-96 -96 -157 -7 -43 1 -53 23 -31 9 9 12 9 12 -2 0 -25 -21 -94 -33 -109 -6
-7 -12 -30 -12 -50 -1 -20 -10 -75 -20 -123 -18 -83 -19 -90 -2 -174 14 -76
21 -92 46 -111 32 -25 85 -111 96 -155 8 -32 59 -88 80 -88 8 0 16 13 19 33
14 91 26 286 25 397 -1 89 4 145 16 195 22 87 95 209 139 232 37 19 207 63
245 63 15 0 44 9 66 20 23 12 43 16 49 11 6 -5 53 -15 103 -22 76 -10 120 -10
240 0 186 17 261 32 338 71 l60 30 115 -12 c63 -6 117 -15 120 -18 3 -4 21
-12 41 -19 19 -6 58 -33 85 -60 40 -39 58 -69 88 -143 20 -51 51 -124 68 -163
53 -121 88 -230 94 -294 7 -63 28 -84 39 -38 35 150 55 264 50 280 -2 7 -6 56
-9 109 -5 96 -18 141 -50 167 -17 14 -22 41 -8 41 5 0 21 10 35 23 29 24 39
87 14 87 -7 0 -29 9 -50 20 -20 11 -46 20 -57 20 -26 0 -25 2 7 69 23 48 27
68 27 141 -1 89 -19 190 -35 190 -5 0 -9 -8 -9 -17 0 -10 -11 -40 -24 -68
l-23 -50 -8 78 c-10 102 -3 148 34 219 16 32 27 58 23 58 -4 0 -31 -9 -60 -20
-70 -27 -77 -26 -92 13 -13 33 -56 102 -77 125 -7 7 -13 18 -13 23 0 10 -78
64 -85 58 -2 -3 0 -34 5 -69 19 -127 4 -147 -21 -30 -11 47 -50 133 -69 150
-3 3 -18 25 -35 50 -36 55 -78 98 -130 133 -55 38 -63 35 -58 -17z"/>
<path d="M2080 4414 c-87 -18 -146 -49 -200 -105 -48 -49 -109 -153 -98 -165
4 -4 35 19 68 49 76 70 128 102 205 121 75 20 166 20 278 1 114 -20 152 -4
112 49 -41 54 -228 80 -365 50z"/>
<path d="M3010 4341 c-167 -6 -195 -14 -206 -58 -14 -54 38 -64 206 -38 52 8
143 15 202 15 91 0 117 -4 178 -26 39 -15 74 -23 78 -20 10 11 -64 74 -118
101 -56 28 -132 34 -340 26z"/>
<path d="M3122 4015 c-80 -18 -140 -46 -186 -90 -49 -46 -46 -66 3 -22 21 19
65 45 97 57 84 31 228 45 307 30 122 -24 120 -24 115 -9 -7 21 -123 48 -203
48 -38 -1 -99 -7 -133 -14z"/>
<path d="M2145 3996 c-67 -16 -140 -52 -183 -90 -35 -31 -82 -97 -82 -116 0
-16 51 -60 69 -60 12 1 11 5 -6 19 -32 27 -29 51 13 100 67 78 197 124 314
110 63 -7 67 -9 118 -65 28 -31 52 -53 52 -47 0 6 -7 16 -15 23 -8 7 -15 18
-15 24 -1 22 -57 76 -100 95 -51 23 -92 25 -165 7z"/>
<path d="M2108 3909 c-42 -34 -62 -87 -52 -138 l7 -31 67 0 c37 0 95 3 128 6
59 7 62 8 68 38 3 19 -1 48 -10 71 -35 86 -138 113 -208 54z"/>
<path d="M3095 3379 c-146 -34 -415 -74 -590 -89 -175 -15 -223 -29 -269 -80
-45 -50 -56 -77 -56 -141 0 -51 -6 -57 -42 -38 -17 9 -23 8 -30 -5 -15 -26
-36 -18 -64 24 -28 42 -50 44 -40 4 9 -33 -9 -31 -52 7 -31 28 -37 30 -47 16
-10 -14 -16 -12 -49 15 -51 42 -60 28 -38 -58 35 -140 201 -350 329 -417 37
-19 93 -42 123 -51 30 -8 82 -24 115 -35 96 -31 210 -46 345 -46 192 0 318 35
465 130 28 18 77 48 111 68 100 60 207 200 256 337 35 98 63 310 38 295 -6 -4
-19 -24 -30 -46 -22 -42 -40 -51 -40 -20 0 34 -17 32 -30 -2 -6 -17 -16 -43
-22 -57 l-10 -24 -19 24 -19 25 -19 -24 c-23 -30 -27 -22 -36 61 -6 52 -14 76
-37 108 l-30 40 -66 -1 c-37 -1 -103 -10 -147 -20z m159 -91 c33 -14 41 -54
33 -163 -10 -135 -22 -170 -76 -209 -52 -39 -139 -65 -193 -58 -30 3 -40 10
-53 38 -18 39 -15 38 -79 19 -27 -8 -77 -15 -110 -15 l-61 0 -16 -39 c-23 -54
-72 -76 -164 -75 -52 1 -85 8 -128 27 -53 24 -60 31 -84 84 -35 75 -43 169
-18 207 36 55 77 67 375 106 85 12 229 36 320 54 186 38 218 41 254 24z"/>
<path d="M2849 1520 c-3 -8 -16 -15 -30 -15 -20 0 -24 -4 -21 -28 2 -15 -1
-33 -6 -40 -5 -7 -14 -25 -20 -42 -5 -16 -13 -39 -17 -50 -5 -14 1 -11 18 10
22 26 26 28 32 12 14 -34 -5 -83 -46 -123 -23 -21 -48 -47 -57 -58 -10 -10
-29 -30 -44 -44 -16 -14 -28 -29 -28 -34 0 -19 26 -5 78 43 31 29 73 63 93 76
l36 23 56 -25 c47 -20 57 -22 57 -9 0 8 -18 31 -39 52 -39 37 -39 37 -45 137
-9 126 -10 135 -17 115z"/>
<path d="M2067 1288 c-34 -56 -43 -122 -17 -138 9 -6 9 -13 1 -28 -6 -11 -11
-29 -11 -39 1 -14 6 -12 26 12 14 17 39 45 56 62 18 21 26 37 21 45 -4 7 -8
20 -8 28 0 8 -10 16 -22 18 -27 4 -26 0 -8 51 20 57 1 52 -38 -11z"/>
</g>
</svg>
